<svg xmlns="http://www.w3.org/2000/svg" aria-hidden="true" style="position:absolute;width:0;height:0;overflow:hidden">
  <defs>
    <symbol id="icon-antenna" viewBox="0 0 32 32">
      <path fill="#2e2f42" d="m31 22-9-8 1-5h1a2 2 0 1 0-2-1h-5L9 0H8L7 2l1 1a15 15 0 0 0 2 18v7H4c-2 0-3 1-3 2v1l1 1h24l1-1v-1l-3-2h-6v-3a15 15 0 0 0 10-1h1v1-1l2-1v-1zM23 6a1 1 0 1 1 1 2 1 1 0 0 1-1-2zm-1 4-1 3-1-1 2-2zm-1-1-2 2-1-2h3zm3 20 2 1v1H2v-1l2-1h20zm-7-2v1h-6v-1h6zm-6-1v-4c0-2 1-3 3-3s3 1 3 3v4h-6zm7-2v-2c0-2-2-4-4-4l-3 2C7 16 6 9 8 4l19 19c-3 1-6 2-9 1zm11-1L8 2l1-1 8 8 13 13-1 1z" style="fill:var(--color1, #2e2f42)"/>
      <path fill="#4d5ae5" d="M14 20a2 2 0 1 0 0 3 2 2 0 1 0 0-3zm0 2a1 1 0 0 1 0-1 1 1 0 0 1 0 1z" style="fill:var(--color2, #4d5ae5)"/>
    </symbol>
    <symbol id="icon-astronaut" viewBox="0 0 32 32">
      <path fill="#4d5ae5" d="M32 5V4h-2l-1-2h-1l-1 2h-2a1 1 0 0 0 0 1l1 1v3h1l1-1 2 1a1 1 0 0 0 1-1l-1-2 2-1zm-2 1h-1l1 1h-1a1 1 0 0 0-1 0h-1V6l-1-1h2V4l1 1h1v1zM26 21h-1v1h1v-1zM26 23h-1v1h1v-1zM27 22h-1v1h1v-1zM25 22h-1v1h1v-1zM22 26h-1v1h1v-1zM22 29h-1v1h1v-1zM23 27h-1v2h1v-2zM21 27h-1v2h1v-2zM16 24h-1v1h1v-1zM16 26h-1v1h1v-1zM17 25h-1v1h1v-1zM15 25h-1v1h1v-1zM6 6H5v1h1V6zM6 8H5v1h1V8zM7 7H6v1h1V7zM5 7H4v1h1V7z" style="fill:var(--color2, #4d5ae5)"/>
      <path fill="#2e2f42" d="m25 14-1-1-2 1-1 1-2 1h-1a7 7 0 0 0-3-14 7 7 0 0 0-6 11H6l-3 2-2 1a2 2 0 0 0 1 3h1l1-1 2-1h2l-6 5-1 2a2 2 0 0 0 0 2 2 2 0 0 0 2 0l2-1 1-2 1 1-2 2-1 1a2 2 0 0 0 0 3 2 2 0 0 0 2 0l4-4 1-1 5-6 4 1 3-2 2-1v-3zM2 18a1 1 0 0 1-1-1l2-1v1l-1 1zm4-2-2 1v-2l2-1v2zm15-7-1 3-4-2-1-1 2-5c2 0 4 3 4 5zM9 9a6 6 0 0 1 7-5l-2 4a2 2 0 1 0 0 4l2-1 4 2A6 6 0 0 1 9 9zm6 1a1 1 0 0 1-2 0 1 1 0 0 1 2 0zM2 25a1 1 0 0 1 0-1l1-1v1l-1 1zm4 4H5a1 1 0 0 1 0-1l1-1 1 1-1 1zm3-4-2 2v-1l1-1v-1l-1-2H6l-2 1H3l3-3 4 4-1 1zm7-7v1l-5 5-5-5 3-2a1 1 0 0 0 0-1H7v-2h3a7 7 0 0 0 6 2l3 1v2l-3-1zm4 1v-2l1-1 1 1-2 2zm4-3-1 1-1-2h1s0-1 0 0a1 1 0 0 1 1 1z" style="fill:var(--color1, #2e2f42)"/>
      <path fill="#2e2f42" d="m14 19-3-3-2 3 2 2 3-2zm-3 1-1-1 1-1 1 1-1 1zM17 5v1l2 2h1c0-2-2-3-3-3zM20 9h-1v1h1V9z" style="fill:var(--color1, #2e2f42)"/>
    </symbol>
    <symbol id="icon-clock" viewBox="0 0 32 32">
      <path fill="#2e2f42" d="M31 15a15 15 0 1 0-19 15v-1l4-12a2 2 0 1 0-1-3l-5-6a1 1 0 0 0-1 1l5 5 1 3-4 11a14 14 0 1 1 11 0l-1-2a1 1 0 0 0-1 0l-4 3a1 1 0 0 0 1 1l5 2a1 1 0 0 0 0-1v-2c6-2 9-8 9-14zm-15 0a1 1 0 1 1 0 1 1 1 0 0 1 0-1zm2 15 2-2 1 2h-3z" style="fill:var(--color1, #2e2f42)"/>
      <path fill="#4d5ae5" d="M15 3v1a1 1 0 1 0 2 0V3a1 1 0 0 0-2 0zM4 15a1 1 0 0 0 0 1h1a1 1 0 1 0 0-1H4zM28 16a1 1 0 1 0 0-1h-1a1 1 0 0 0 0 1h1z" style="fill:var(--color2, #4d5ae5)"/>
    </symbol>
    <symbol id="icon-diagram" viewBox="0 0 32 32">
      <path fill="#4d5ae5" d="M15 15h1v5h-1v-5zM19 17h1v3h-1v-3zM11 19h1v1h-1v-1zM7 18h2v2H7v-2z" style="fill:var(--color2, #4d5ae5)"/>
      <path fill="#2e2f42" d="M2 28h25l2-1v-2l-2-2V10l3-3a2 2 0 1 0-1-1l-2 2V7l-2-2H4L2 7v16l-2 2v2l2 1zM30 5a1 1 0 1 1 0 1 1 1 0 0 1 0-1zM3 7l1-1h21l1 1v2l-1 1V8H4v13l1 1h19l1-1v-9l1-1v12H3V7zm5 7a2 2 0 1 0 1 3l2 1 1-1 4-4 3 3h1l3-3v8H5V9h18v2l-3 4-4-3h-1l-4 4h-1v-1l-2-1zm1 1a1 1 0 1 1-2 0 1 1 0 0 1 2 0zm3 9h5v1h-5v-1zM1 25l1-1h9v1l1 1h5l1-1v-1h9l1 1v2H1v-2z" style="fill:var(--color1, #2e2f42)"/>
    </symbol>
    <symbol id="icon-facebook" viewBox="0 0 32 32">
      <path d="M21 5h3V0h-4c-4 0-7 3-7 8v4H8v6h5v14h6V18h4l1-6h-5V8c0-2 0-3 2-3z"/>
    </symbol>
    <symbol id="icon-instagram" viewBox="0 0 32 32">
      <path d="m32 9-1-3c0-2-1-3-2-3l-2-2-4-1A110 110 0 0 0 6 1L3 3C2 3 1 4 1 6L0 9a110 110 0 0 0 1 17c0 2 1 3 2 3l3 2 3 1a117 117 0 0 0 18-1c2-1 3-2 4-5l1-3V9zm-3 13v3c-1 2-2 3-4 3l-2 1a113 113 0 0 1-16-1l-2-1-1-2-1-3A113 113 0 0 1 4 7l1-2 2-1 3-1a113 113 0 0 1 16 1l1 1 2 2v15z" />
      <path d="M16 8a8 8 0 1 0 0 16 8 8 0 0 0 0-16zm0 13a5 5 0 1 1 0-10 5 5 0 0 1 0 10zM27 7a2 2 0 1 1-4 0 2 2 0 0 1 4 0z"/>
    </symbol>
    <symbol id="icon-linkedin" viewBox="0 0 32 32">
      <path d="M32 32V20c0-5-1-10-8-10-3 0-5 2-6 4v-3h-7v21h7V21c0-2 0-5 4-5 3 0 3 3 3 6v10h7zM1 11h6v21H1V11zM4 0C2 0 0 2 0 4s2 4 4 4 4-2 4-4-2-4-4-4z"/>
    </symbol>
    <symbol id="icon-twitter" viewBox="0 0 32 32">
      <path d="m32 6-4 1c2-1 3-2 3-4l-4 2a7 7 0 0 0-11 6C10 11 5 8 2 4a7 7 0 0 0 2 9l-3-1c0 3 3 6 6 7a7 7 0 0 1-3 0c0 2 3 4 6 4a13 13 0 0 1-10 3A19 19 0 0 0 29 9l3-3z"/>
    </symbol>
    <symbol id="person_black" viewBox="0 0 32 32">
    <path d="M16 16c2.947 0 5.333-2.387 5.333-5.333s-2.387-5.333-5.333-5.333c-2.947 0-5.333 2.387-5.333 5.333s2.387 5.333 5.333 5.333zM16 18.667c-3.56 0-10.667 1.787-10.667 5.333v1.333c0 0.733 0.6 1.333 1.333 1.333h18.667c0.733 0 1.333-0.6 1.333-1.333v-1.333c0-3.547-7.107-5.333-10.667-5.333z"></path>
    </symbol>
<symbol id="phone_black" viewBox="0 0 24 32">
<path d="M19.635 18.487l-2.451-0.28c-0.589-0.067-1.167 0.135-1.582 0.55l-1.775 1.775c-2.731-1.389-4.969-3.618-6.359-6.359l1.785-1.785c0.415-0.415 0.618-0.994 0.55-1.582l-0.28-2.432c-0.116-0.975-0.936-1.708-1.92-1.708h-1.669c-1.090 0-1.997 0.907-1.93 1.997 0.511 8.24 7.102 14.821 15.332 15.332 1.090 0.068 1.997-0.839 1.997-1.93v-1.669c0.010-0.975-0.724-1.795-1.698-1.911z"></path>
</symbol>
<symbol id="email_black" viewBox="0 0 24 32">
<path d="M20 8h-16c-1.1 0-1.99 0.9-1.99 2l-0.010 12c0 1.1 0.9 2 2 2h16c1.1 0 2-0.9 2-2v-12c0-1.1-0.9-2-2-2zM19.6 12.25l-7.070 4.42c-0.32 0.2-0.74 0.2-1.060 0l-7.070-4.42c-0.25-0.16-0.4-0.43-0.4-0.72 0-0.67 0.73-1.070 1.3-0.72l6.7 4.19 6.7-4.19c0.57-0.35 1.3 0.050 1.3 0.72 0 0.29-0.15 0.56-0.4 0.72z"></path>
</symbol>
 <symbol id="icon-close-black-18dp-2-1" viewBox="0 0 32 32">
      <path d="m32 3-3-3-13 13L3 0 0 3l13 13L0 29l3 3 13-13 13 13 3-3-13-13L32 3z"/>
    </symbol>
<symbol id="icon-icon_send" viewBox="0 0 38 32">
<path fill="#fff" style="fill: var(--color1, #fff)" d="M38.4 0l-38.4 18 12.272 3.788 18.928-14.788-14.397 16.186 0.012 0.004-0.014-0.004v8.814l6.882-6.691 8.718 2.691 6-28z"></path>
</symbol>
 <symbol id="icon-Vector-icon" viewBox="0 0 43 32">
<path d="M30.522 0.68c0.461-0.441 1.074-0.685 1.71-0.68s1.246 0.258 1.7 0.706c0.454 0.448 0.717 1.056 0.734 1.695s-0.214 1.26-0.644 1.732l-13.052 16.412c-0.224 0.243-0.495 0.438-0.796 0.573s-0.626 0.208-0.956 0.214c-0.33 0.006-0.657-0.055-0.963-0.179s-0.584-0.309-0.817-0.543l-8.656-8.702c-0.241-0.226-0.434-0.498-0.568-0.801s-0.206-0.629-0.212-0.96c-0.006-0.331 0.055-0.66 0.178-0.967s0.307-0.586 0.54-0.82c0.233-0.234 0.51-0.419 0.816-0.543s0.633-0.185 0.962-0.179c0.329 0.006 0.654 0.078 0.955 0.213s0.572 0.329 0.796 0.572l6.85 6.884 11.361-14.553c0.020-0.025 0.042-0.049 0.065-0.072h-0.003z"></path>
<path stroke-linejoin="miter" stroke-linecap="butt" stroke-miterlimit="4" stroke-width="2.6667" d="M32.221 1.333c0.288 0.002 0.566 0.118 0.773 0.323s0.331 0.485 0.339 0.781c0.007 0.296-0.1 0.581-0.297 0.797l-0.031 0.034-0.026 0.036-13 16.341c-0.101 0.107-0.218 0.198-0.352 0.258-0.137 0.062-0.286 0.093-0.435 0.096l-0.224-0.018c-0.073-0.014-0.144-0.034-0.214-0.062s-0.136-0.065-0.198-0.107l-0.174-0.143-8.69-8.734-0.148-0.169c-0.044-0.062-0.081-0.128-0.112-0.198-0.062-0.139-0.096-0.29-0.099-0.443s0.026-0.306 0.083-0.448c0.057-0.142 0.141-0.27 0.247-0.378s0.234-0.191 0.372-0.247c0.139-0.056 0.288-0.083 0.438-0.081s0.296 0.035 0.432 0.096c0.137 0.061 0.262 0.149 0.365 0.26l0.016 0.018 0.016 0.016 7.917 7.956 0.93-1.193 11.325-14.508c0.207-0.184 0.473-0.286 0.747-0.284z"></path>
</symbol>

  </defs>
</svg>
